<svg width="1600" height="440" viewBox="0 0 1600 440" fill="none" xmlns="http://www.w3.org/2000/svg">
  <defs>
    <linearGradient id="crucible-bg" x1="72" y1="42" x2="300" y2="338" gradientUnits="userSpaceOnUse">
      <stop offset="0" stop-color="#FFB000" stop-opacity="0.22" />
      <stop offset="0.58" stop-color="#201F1E" stop-opacity="0.92" />
      <stop offset="1" stop-color="#71D7CD" stop-opacity="0.16" />
    </linearGradient>
    <radialGradient id="crucible-radial" cx="0" cy="0" r="1" gradientUnits="userSpaceOnUse" gradientTransform="translate(118 96) rotate(48) scale(150)">
      <stop offset="0" stop-color="#FFD597" stop-opacity="0.26" />
      <stop offset="0.32" stop-color="#FFD597" stop-opacity="0" />
    </radialGradient>
  </defs>

  <g transform="translate(56 56)">
    <rect width="256" height="256" rx="8" fill="url(#crucible-bg)" stroke="#FFB000" stroke-opacity="0.25" stroke-width="4" />
    <rect width="256" height="256" rx="8" fill="url(#crucible-radial)" opacity="0.8" />
    <g transform="translate(25.6 25.6) scale(5.12)">
      <path d="M20 3.8 33.9 11.9v16.2L20 36.2 6.1 28.1V11.9L20 3.8Z" fill="none" stroke="#FFB000" stroke-width="2" stroke-linejoin="round" opacity="0.95" />
      <path d="M20 10.3c-4.5 1.9-6.8 4.9-6.8 8.9 0 4.7 3.2 7.9 7.5 7.9 3.2 0 5.8-1.7 7.1-4.6h-5.1c-.6.6-1.3.9-2.2.9-2 0-3.3-1.6-3.3-4.1 0-2.4 1.3-4.1 3.3-4.1 1 0 1.8.4 2.4 1.1h5C26.8 13 24.1 10.9 20 10.3Z" fill="#FFB000" />
      <path d="M24.6 6.8 17 20.3h5.4L15.8 33" fill="none" stroke="#71D7CD" stroke-width="1.8" stroke-linecap="round" stroke-linejoin="round" opacity="0.9" />
    </g>
  </g>

  <text x="392" y="180" fill="#E6E2DF" font-family="Space Grotesk, Inter, Arial, sans-serif" font-size="96" font-weight="900" letter-spacing="0">CRUCIBLE</text>
  <text x="392" y="275" fill="#FFB000" fill-opacity="0.7" font-family="JetBrains Mono, ui-monospace, SFMono-Regular, Menlo, monospace" font-size="38" font-weight="500" letter-spacing="24">AGENT TRUST LAYER</text>
</svg>
